<svg id="图层_1" data-name="图层 1" xmlns="http://www.w3.org/2000/svg" viewBox="0 0 152.35 176.94"><defs><style>.cls-1{fill:#231815;}</style></defs><path class="cls-1" d="M90.94,85.81H83.16A10.76,10.76,0,0,0,72.4,96.57v1.68h0v17.13A3.59,3.59,0,0,1,68.8,119H61a3.59,3.59,0,0,1-3.59-3.59V96.57A3.59,3.59,0,0,1,61,93h2.32a3.59,3.59,0,1,0,0-7.17H61A10.78,10.78,0,0,0,50.26,96.57v18.81A10.77,10.77,0,0,0,61,126.14H68.8a10.76,10.76,0,0,0,10.76-10.76V113.7h0V96.57A3.59,3.59,0,0,1,83.16,93h7.78a3.59,3.59,0,0,1,3.59,3.59v18.81A3.59,3.59,0,0,1,90.94,119H88.62a3.6,3.6,0,0,0-3.6,3.59h0a3.59,3.59,0,0,0,3.59,3.59h2.33a10.78,10.78,0,0,0,10.76-10.76V96.57A10.76,10.76,0,0,0,90.94,85.81Z"/><path class="cls-1" d="M107.89,74.67a3.25,3.25,0,0,0-2.39-1c-3,0-5.64,0-8.37-.1a8.6,8.6,0,0,1-4.81-1.78c-4.59-4-9.15-8.11-13.17-11.76l-.46-.42a4,4,0,0,0-5.42,0l-.45.41c-4,3.66-8.58,7.79-13.17,11.77a8.66,8.66,0,0,1-4.82,1.78c-2.72.14-5.4.13-8.37.1h0a3.32,3.32,0,0,0-2.35,1,3,3,0,0,0-.91,2.15,3.2,3.2,0,0,0,3.25,3.1h.85c4.93,0,9.59,0,14.32-.07a4.2,4.2,0,0,0,2.29-1.09c3.19-2.74,6.35-5.55,9.41-8.27h0a4,4,0,0,1,5.35,0c3.06,2.72,6.23,5.53,9.42,8.28a4.26,4.26,0,0,0,2.3,1.09c4.71.09,9.35.08,14.26.07h.9a3.2,3.2,0,0,0,3.25-3.1A3,3,0,0,0,107.89,74.67Z"/></svg>