<svg id="图层_1" data-name="图层 1" xmlns="http://www.w3.org/2000/svg" viewBox="0 0 566.93 566.93">
  <defs>
    <style>.cls-1{fill:#231815;}</style>
  </defs>
  <path class="cls-1"
        d="M412.66,228.31H345.51c-51.36,0-93,40.45-93,90.36v14.1h-.08v143.8c0,16.65-13.89,30.14-31,30.14H154.27c-17.14,0-31-13.49-31-30.14V318.67c0-16.65,13.89-30.15,31-30.15l20,0c17.14,0,31.06-13.46,31.06-30.11s-13.86-30.1-31-30.12l-20.13,0c-51.28,0-93,40.53-93,90.36v157.9c0,49.9,41.63,90.36,93,90.36h67.15c51.36,0,93-40.46,93-90.36V462.46h.08V318.67c0-16.65,13.89-30.15,31-30.15h67.15c17.14,0,31,13.5,31,30.15v157.9c0,16.65-13.89,30.14-31,30.14l-20,0c-17.14,0-31.06,13.46-31.06,30.12h0c0,16.62,13.86,30.1,31,30.12l20.13,0c51.28,0,93-40.54,93-90.36V318.67C505.65,268.76,464,228.31,412.66,228.31Z"/>
  <path class="cls-1"
        d="M559.09,134.84a28.42,28.42,0,0,0-20.59-8c-25.65.24-48.79.34-72.3-.87-15.25-.78-32-6.76-41.6-14.88-39.66-33.41-79-68.13-113.74-98.77l-4-3.53a35.54,35.54,0,0,0-46.8,0l-4,3.49C221.37,42.93,182,77.67,142.34,111.09c-9.64,8.12-26.36,14.1-41.61,14.88-23.47,1.21-46.63,1.1-72.3.87h-.29a29,29,0,0,0-20.3,8,24.91,24.91,0,0,0-7.84,18c0,14.31,12.61,26,28.1,26h7.31c42.6.09,82.84.17,123.68-.54,6.24-.1,14.46-4.68,19.83-9.18,27.55-23,54.86-46.61,81.27-69.4l.15-.13a35.6,35.6,0,0,1,46.25,0c26.46,22.84,53.83,46.46,81.42,69.53,5.37,4.5,13.59,9.08,19.82,9.18,40.69.71,80.76.63,123.19.55l7.81,0c15.49,0,28.1-11.7,28.1-26A24.89,24.89,0,0,0,559.09,134.84Z"/>
</svg>
